<mxfile host="app.diagrams.net" modified="2023-02-21T19:39:52.203Z" agent="5.0 (X11; Linux x86_64) AppleWebKit/537.36 (KHTML, like Gecko) Chrome/109.0.0.0 Safari/537.36" etag="GHs6TWNWtgOac7OGZtvc" version="20.8.22" type="github">
  <diagram id="C5RBs43oDa-KdzZeNtuy" name="Page-1">
    <mxGraphModel dx="981" dy="558" grid="1" gridSize="10" guides="1" tooltips="1" connect="1" arrows="1" fold="1" page="1" pageScale="1" pageWidth="827" pageHeight="1169" math="0" shadow="0">
      <root>
        <mxCell id="WIyWlLk6GJQsqaUBKTNV-0" />
        <mxCell id="WIyWlLk6GJQsqaUBKTNV-1" parent="WIyWlLk6GJQsqaUBKTNV-0" />
        <mxCell id="ZWrd6oJcgEBTgD4ePZHq-7" style="edgeStyle=orthogonalEdgeStyle;rounded=0;orthogonalLoop=1;jettySize=auto;html=1;exitX=0.5;exitY=1;exitDx=0;exitDy=0;entryX=0.5;entryY=0;entryDx=0;entryDy=0;fontFamily=Times New Roman;fontSize=15;" edge="1" parent="WIyWlLk6GJQsqaUBKTNV-1" source="ZWrd6oJcgEBTgD4ePZHq-0" target="ZWrd6oJcgEBTgD4ePZHq-2">
          <mxGeometry relative="1" as="geometry" />
        </mxCell>
        <mxCell id="ZWrd6oJcgEBTgD4ePZHq-0" value="&lt;font face=&quot;Times New Roman&quot; style=&quot;font-size: 15px;&quot;&gt;Початок&lt;/font&gt;" style="rounded=1;whiteSpace=wrap;html=1;" vertex="1" parent="WIyWlLk6GJQsqaUBKTNV-1">
          <mxGeometry x="330" y="10" width="100" height="40" as="geometry" />
        </mxCell>
        <mxCell id="ZWrd6oJcgEBTgD4ePZHq-8" style="edgeStyle=orthogonalEdgeStyle;rounded=0;orthogonalLoop=1;jettySize=auto;html=1;exitX=0.5;exitY=1;exitDx=0;exitDy=0;entryX=0.5;entryY=0;entryDx=0;entryDy=0;fontFamily=Times New Roman;fontSize=15;" edge="1" parent="WIyWlLk6GJQsqaUBKTNV-1" source="ZWrd6oJcgEBTgD4ePZHq-2" target="ZWrd6oJcgEBTgD4ePZHq-3">
          <mxGeometry relative="1" as="geometry" />
        </mxCell>
        <mxCell id="ZWrd6oJcgEBTgD4ePZHq-2" value="А" style="rounded=0;whiteSpace=wrap;html=1;fontFamily=Times New Roman;fontSize=15;" vertex="1" parent="WIyWlLk6GJQsqaUBKTNV-1">
          <mxGeometry x="335" y="80" width="90" height="40" as="geometry" />
        </mxCell>
        <mxCell id="ZWrd6oJcgEBTgD4ePZHq-6" style="edgeStyle=orthogonalEdgeStyle;rounded=0;orthogonalLoop=1;jettySize=auto;html=1;exitX=1;exitY=0.5;exitDx=0;exitDy=0;entryX=0.5;entryY=0;entryDx=0;entryDy=0;fontFamily=Times New Roman;fontSize=15;" edge="1" parent="WIyWlLk6GJQsqaUBKTNV-1" source="ZWrd6oJcgEBTgD4ePZHq-3" target="ZWrd6oJcgEBTgD4ePZHq-4">
          <mxGeometry relative="1" as="geometry" />
        </mxCell>
        <mxCell id="ZWrd6oJcgEBTgD4ePZHq-29" style="edgeStyle=orthogonalEdgeStyle;rounded=0;orthogonalLoop=1;jettySize=auto;html=1;exitX=0;exitY=0.5;exitDx=0;exitDy=0;fontFamily=Times New Roman;fontSize=15;" edge="1" parent="WIyWlLk6GJQsqaUBKTNV-1" source="ZWrd6oJcgEBTgD4ePZHq-3">
          <mxGeometry relative="1" as="geometry">
            <mxPoint x="260" y="890" as="targetPoint" />
          </mxGeometry>
        </mxCell>
        <mxCell id="ZWrd6oJcgEBTgD4ePZHq-3" value="X1" style="rhombus;whiteSpace=wrap;html=1;fontFamily=Times New Roman;fontSize=15;" vertex="1" parent="WIyWlLk6GJQsqaUBKTNV-1">
          <mxGeometry x="340" y="160" width="80" height="60" as="geometry" />
        </mxCell>
        <mxCell id="ZWrd6oJcgEBTgD4ePZHq-10" style="edgeStyle=orthogonalEdgeStyle;rounded=0;orthogonalLoop=1;jettySize=auto;html=1;exitX=0.5;exitY=1;exitDx=0;exitDy=0;entryX=0.5;entryY=0;entryDx=0;entryDy=0;fontFamily=Times New Roman;fontSize=15;" edge="1" parent="WIyWlLk6GJQsqaUBKTNV-1" source="ZWrd6oJcgEBTgD4ePZHq-4" target="ZWrd6oJcgEBTgD4ePZHq-9">
          <mxGeometry relative="1" as="geometry">
            <Array as="points">
              <mxPoint x="515" y="270" />
              <mxPoint x="380" y="270" />
            </Array>
          </mxGeometry>
        </mxCell>
        <mxCell id="ZWrd6oJcgEBTgD4ePZHq-4" value="B" style="rounded=0;whiteSpace=wrap;html=1;fontFamily=Times New Roman;fontSize=15;" vertex="1" parent="WIyWlLk6GJQsqaUBKTNV-1">
          <mxGeometry x="470" y="210" width="90" height="40" as="geometry" />
        </mxCell>
        <mxCell id="ZWrd6oJcgEBTgD4ePZHq-12" style="edgeStyle=orthogonalEdgeStyle;rounded=0;orthogonalLoop=1;jettySize=auto;html=1;exitX=1;exitY=0.5;exitDx=0;exitDy=0;entryX=0.5;entryY=0;entryDx=0;entryDy=0;fontFamily=Times New Roman;fontSize=15;" edge="1" parent="WIyWlLk6GJQsqaUBKTNV-1" source="ZWrd6oJcgEBTgD4ePZHq-9" target="ZWrd6oJcgEBTgD4ePZHq-11">
          <mxGeometry relative="1" as="geometry" />
        </mxCell>
        <mxCell id="ZWrd6oJcgEBTgD4ePZHq-31" style="edgeStyle=orthogonalEdgeStyle;rounded=0;orthogonalLoop=1;jettySize=auto;html=1;exitX=0;exitY=0.5;exitDx=0;exitDy=0;fontFamily=Times New Roman;fontSize=15;" edge="1" parent="WIyWlLk6GJQsqaUBKTNV-1" source="ZWrd6oJcgEBTgD4ePZHq-9">
          <mxGeometry relative="1" as="geometry">
            <mxPoint x="320" y="570" as="targetPoint" />
          </mxGeometry>
        </mxCell>
        <mxCell id="ZWrd6oJcgEBTgD4ePZHq-9" value="X2" style="rhombus;whiteSpace=wrap;html=1;fontFamily=Times New Roman;fontSize=15;" vertex="1" parent="WIyWlLk6GJQsqaUBKTNV-1">
          <mxGeometry x="340" y="290" width="80" height="60" as="geometry" />
        </mxCell>
        <mxCell id="ZWrd6oJcgEBTgD4ePZHq-14" style="edgeStyle=orthogonalEdgeStyle;rounded=0;orthogonalLoop=1;jettySize=auto;html=1;exitX=0.5;exitY=1;exitDx=0;exitDy=0;entryX=0.5;entryY=0;entryDx=0;entryDy=0;fontFamily=Times New Roman;fontSize=15;" edge="1" parent="WIyWlLk6GJQsqaUBKTNV-1" source="ZWrd6oJcgEBTgD4ePZHq-11" target="ZWrd6oJcgEBTgD4ePZHq-13">
          <mxGeometry relative="1" as="geometry">
            <Array as="points">
              <mxPoint x="515" y="430" />
              <mxPoint x="380" y="430" />
            </Array>
          </mxGeometry>
        </mxCell>
        <mxCell id="ZWrd6oJcgEBTgD4ePZHq-11" value="C" style="rounded=0;whiteSpace=wrap;html=1;fontFamily=Times New Roman;fontSize=15;" vertex="1" parent="WIyWlLk6GJQsqaUBKTNV-1">
          <mxGeometry x="470" y="380" width="90" height="40" as="geometry" />
        </mxCell>
        <mxCell id="ZWrd6oJcgEBTgD4ePZHq-19" style="edgeStyle=orthogonalEdgeStyle;rounded=0;orthogonalLoop=1;jettySize=auto;html=1;exitX=1;exitY=0.5;exitDx=0;exitDy=0;entryX=0.5;entryY=0;entryDx=0;entryDy=0;fontFamily=Times New Roman;fontSize=15;" edge="1" parent="WIyWlLk6GJQsqaUBKTNV-1" source="ZWrd6oJcgEBTgD4ePZHq-13" target="ZWrd6oJcgEBTgD4ePZHq-16">
          <mxGeometry relative="1" as="geometry" />
        </mxCell>
        <mxCell id="ZWrd6oJcgEBTgD4ePZHq-33" style="edgeStyle=orthogonalEdgeStyle;rounded=0;orthogonalLoop=1;jettySize=auto;html=1;exitX=0;exitY=0.5;exitDx=0;exitDy=0;fontFamily=Times New Roman;fontSize=15;" edge="1" parent="WIyWlLk6GJQsqaUBKTNV-1" source="ZWrd6oJcgEBTgD4ePZHq-13">
          <mxGeometry relative="1" as="geometry">
            <mxPoint x="330" y="430" as="targetPoint" />
            <Array as="points">
              <mxPoint x="330" y="480" />
              <mxPoint x="330" y="430" />
            </Array>
          </mxGeometry>
        </mxCell>
        <mxCell id="ZWrd6oJcgEBTgD4ePZHq-13" value="X3" style="rhombus;whiteSpace=wrap;html=1;fontFamily=Times New Roman;fontSize=15;" vertex="1" parent="WIyWlLk6GJQsqaUBKTNV-1">
          <mxGeometry x="340" y="450" width="80" height="60" as="geometry" />
        </mxCell>
        <mxCell id="ZWrd6oJcgEBTgD4ePZHq-20" style="edgeStyle=orthogonalEdgeStyle;rounded=0;orthogonalLoop=1;jettySize=auto;html=1;exitX=0.5;exitY=1;exitDx=0;exitDy=0;entryX=0.5;entryY=0;entryDx=0;entryDy=0;fontFamily=Times New Roman;fontSize=15;" edge="1" parent="WIyWlLk6GJQsqaUBKTNV-1" source="ZWrd6oJcgEBTgD4ePZHq-16" target="ZWrd6oJcgEBTgD4ePZHq-17">
          <mxGeometry relative="1" as="geometry" />
        </mxCell>
        <mxCell id="ZWrd6oJcgEBTgD4ePZHq-16" value="D" style="rounded=0;whiteSpace=wrap;html=1;fontFamily=Times New Roman;fontSize=15;" vertex="1" parent="WIyWlLk6GJQsqaUBKTNV-1">
          <mxGeometry x="467.5" y="520" width="95" height="40" as="geometry" />
        </mxCell>
        <mxCell id="ZWrd6oJcgEBTgD4ePZHq-21" style="edgeStyle=orthogonalEdgeStyle;rounded=0;orthogonalLoop=1;jettySize=auto;html=1;exitX=0.5;exitY=1;exitDx=0;exitDy=0;entryX=0.5;entryY=0;entryDx=0;entryDy=0;fontFamily=Times New Roman;fontSize=15;" edge="1" parent="WIyWlLk6GJQsqaUBKTNV-1" source="ZWrd6oJcgEBTgD4ePZHq-17" target="ZWrd6oJcgEBTgD4ePZHq-18">
          <mxGeometry relative="1" as="geometry" />
        </mxCell>
        <mxCell id="ZWrd6oJcgEBTgD4ePZHq-17" value="E" style="rounded=0;whiteSpace=wrap;html=1;fontFamily=Times New Roman;fontSize=15;" vertex="1" parent="WIyWlLk6GJQsqaUBKTNV-1">
          <mxGeometry x="470" y="590" width="90" height="40" as="geometry" />
        </mxCell>
        <mxCell id="ZWrd6oJcgEBTgD4ePZHq-23" style="edgeStyle=orthogonalEdgeStyle;rounded=0;orthogonalLoop=1;jettySize=auto;html=1;exitX=0.5;exitY=1;exitDx=0;exitDy=0;entryX=0.5;entryY=0;entryDx=0;entryDy=0;fontFamily=Times New Roman;fontSize=15;" edge="1" parent="WIyWlLk6GJQsqaUBKTNV-1" source="ZWrd6oJcgEBTgD4ePZHq-18" target="ZWrd6oJcgEBTgD4ePZHq-22">
          <mxGeometry relative="1" as="geometry" />
        </mxCell>
        <mxCell id="ZWrd6oJcgEBTgD4ePZHq-18" value="M" style="rounded=0;whiteSpace=wrap;html=1;fontFamily=Times New Roman;fontSize=15;" vertex="1" parent="WIyWlLk6GJQsqaUBKTNV-1">
          <mxGeometry x="472.5" y="660" width="90" height="40" as="geometry" />
        </mxCell>
        <mxCell id="ZWrd6oJcgEBTgD4ePZHq-25" style="edgeStyle=orthogonalEdgeStyle;rounded=0;orthogonalLoop=1;jettySize=auto;html=1;exitX=1;exitY=0.5;exitDx=0;exitDy=0;fontFamily=Times New Roman;fontSize=15;" edge="1" parent="WIyWlLk6GJQsqaUBKTNV-1" source="ZWrd6oJcgEBTgD4ePZHq-22" target="ZWrd6oJcgEBTgD4ePZHq-24">
          <mxGeometry relative="1" as="geometry" />
        </mxCell>
        <mxCell id="ZWrd6oJcgEBTgD4ePZHq-35" style="edgeStyle=orthogonalEdgeStyle;rounded=0;orthogonalLoop=1;jettySize=auto;html=1;exitX=0;exitY=0.5;exitDx=0;exitDy=0;fontFamily=Times New Roman;fontSize=15;" edge="1" parent="WIyWlLk6GJQsqaUBKTNV-1" source="ZWrd6oJcgEBTgD4ePZHq-22">
          <mxGeometry relative="1" as="geometry">
            <mxPoint x="520" y="640" as="targetPoint" />
            <Array as="points">
              <mxPoint x="320" y="770" />
              <mxPoint x="320" y="640" />
            </Array>
          </mxGeometry>
        </mxCell>
        <mxCell id="ZWrd6oJcgEBTgD4ePZHq-22" value="X4" style="rhombus;whiteSpace=wrap;html=1;fontFamily=Times New Roman;fontSize=15;" vertex="1" parent="WIyWlLk6GJQsqaUBKTNV-1">
          <mxGeometry x="340" y="740" width="80" height="60" as="geometry" />
        </mxCell>
        <mxCell id="ZWrd6oJcgEBTgD4ePZHq-28" style="edgeStyle=orthogonalEdgeStyle;rounded=0;orthogonalLoop=1;jettySize=auto;html=1;exitX=0.5;exitY=1;exitDx=0;exitDy=0;entryX=0.5;entryY=0;entryDx=0;entryDy=0;fontFamily=Times New Roman;fontSize=15;" edge="1" parent="WIyWlLk6GJQsqaUBKTNV-1" source="ZWrd6oJcgEBTgD4ePZHq-24" target="ZWrd6oJcgEBTgD4ePZHq-27">
          <mxGeometry relative="1" as="geometry" />
        </mxCell>
        <mxCell id="ZWrd6oJcgEBTgD4ePZHq-24" value="K" style="rounded=0;whiteSpace=wrap;html=1;fontFamily=Times New Roman;fontSize=15;" vertex="1" parent="WIyWlLk6GJQsqaUBKTNV-1">
          <mxGeometry x="470" y="820" width="90" height="40" as="geometry" />
        </mxCell>
        <mxCell id="ZWrd6oJcgEBTgD4ePZHq-27" value="Кінець" style="rounded=1;whiteSpace=wrap;html=1;fontFamily=Times New Roman;fontSize=15;" vertex="1" parent="WIyWlLk6GJQsqaUBKTNV-1">
          <mxGeometry x="335" y="910" width="90" height="40" as="geometry" />
        </mxCell>
        <mxCell id="ZWrd6oJcgEBTgD4ePZHq-30" value="" style="edgeStyle=none;orthogonalLoop=1;jettySize=auto;html=1;rounded=0;fontFamily=Times New Roman;fontSize=15;" edge="1" parent="WIyWlLk6GJQsqaUBKTNV-1">
          <mxGeometry width="100" relative="1" as="geometry">
            <mxPoint x="260" y="890" as="sourcePoint" />
            <mxPoint x="380" y="890" as="targetPoint" />
            <Array as="points" />
          </mxGeometry>
        </mxCell>
        <mxCell id="ZWrd6oJcgEBTgD4ePZHq-32" value="" style="endArrow=classic;html=1;rounded=0;fontFamily=Times New Roman;fontSize=15;" edge="1" parent="WIyWlLk6GJQsqaUBKTNV-1">
          <mxGeometry width="50" height="50" relative="1" as="geometry">
            <mxPoint x="320" y="570" as="sourcePoint" />
            <mxPoint x="510" y="570" as="targetPoint" />
          </mxGeometry>
        </mxCell>
        <mxCell id="ZWrd6oJcgEBTgD4ePZHq-34" value="" style="endArrow=classic;html=1;rounded=0;fontFamily=Times New Roman;fontSize=15;" edge="1" parent="WIyWlLk6GJQsqaUBKTNV-1">
          <mxGeometry width="50" height="50" relative="1" as="geometry">
            <mxPoint x="330" y="430" as="sourcePoint" />
            <mxPoint x="380" y="430" as="targetPoint" />
          </mxGeometry>
        </mxCell>
      </root>
    </mxGraphModel>
  </diagram>
</mxfile>
